<?xml version="1.0" encoding="utf-8"?>
<!-- Generator: Adobe Illustrator 19.1.0, SVG Export Plug-In . SVG Version: 6.00 Build 0)  -->
<svg version="1.1" id="Ebene_1" xmlns="http://www.w3.org/2000/svg" xmlns:xlink="http://www.w3.org/1999/xlink" x="0px" y="0px"
	 viewBox="0 0 185.5 64.2" style="enable-background:new 0 0 185.5 64.2;" xml:space="preserve">
<style type="text/css">
	.st0{fill:#FFA87D;}
	.st1{clip-path:url(#SVGID_2_);fill:#FFA87D;}
	.st2{clip-path:url(#SVGID_4_);fill:#FFA87D;}
	.st3{clip-path:url(#SVGID_6_);fill:#FFA87D;}
	.st4{clip-path:url(#SVGID_8_);fill:#FFA87D;}
	.st5{clip-path:url(#SVGID_10_);fill:#FFA87D;}
</style>
<polygon class="st0" points="67.3,0 67.3,28.2 72.1,28.2 72.1,23.7 75.3,20.1 81.3,28.2 86.7,28.2 78.3,16.8 86.6,7.7 80.7,7.7 
	72.1,17.2 72.1,0 "/>
<g>
	<defs>
		<rect id="SVGID_1_" width="185.5" height="64.2"/>
	</defs>
	<clipPath id="SVGID_2_">
		<use xlink:href="#SVGID_1_"  style="overflow:visible;"/>
	</clipPath>
	<path class="st1" d="M97.5,8.8v9.5c0,1.5-0.1,3.9,1,5.1c1,1.1,2.4,1.6,3.9,1.5c1.6-0.1,2.9-0.8,3.8-1.8c1.1-1.2,1-3.1,1-4.7V15V8.8
		h4.8v19.5h-4.8v-2.4c0,0.2-0.4,0.6-0.6,0.8c-0.6,0.6-1.2,1-1.8,1.3c-2.1,1.1-4.9,1.2-7.1,0.3c-2.3-0.9-3.7-3-4.3-5.2
		c-0.5-2-0.5-4-0.5-6V8.8H97.5z"/>
</g>
<rect x="118.5" y="0" class="st0" width="4.8" height="28.2"/>
<polygon class="st0" points="142.8,13.2 138,13.2 138,28.2 133.2,28.2 133.2,13.2 129.4,13.2 129.4,8.9 133.2,8.9 133.2,2.1 
	138,2.1 138,8.9 142.8,8.9 "/>
<g>
	<defs>
		<rect id="SVGID_3_" width="185.5" height="64.2"/>
	</defs>
	<clipPath id="SVGID_4_">
		<use xlink:href="#SVGID_3_"  style="overflow:visible;"/>
	</clipPath>
	<path class="st2" d="M153.7,8.8v9.5c0,1.5-0.1,3.9,1,5.1c1,1.1,2.4,1.6,3.9,1.5c1.6-0.1,2.9-0.8,3.8-1.8c1.1-1.2,1-3.1,1-4.7V15
		V8.8h4.8v19.5h-4.8v-2.4c0,0.2-0.4,0.6-0.6,0.8c-0.6,0.6-1.2,1-1.8,1.3c-2.1,1.1-4.9,1.2-7.1,0.3c-2.3-0.9-3.7-3-4.3-5.2
		c-0.5-2-0.5-4-0.5-6V8.8H153.7z"/>
	<path class="st2" d="M185.5,8.6v5c0,0-0.1,0-0.1,0c-0.5-0.2-1-0.2-1.5-0.2c-1.4,0-2.7,0.5-3.7,1.5c-0.5,0.5-0.8,1.2-1,1.8
		c-0.2,0.6-0.2,1.3-0.2,1.9v9.6h-4.8V8.9h4.8v2.9C179,11.7,181.1,8.3,185.5,8.6"/>
	<path class="st2" d="M14.8,50c-1.3-1.9-3.7-2.8-6-2.3c-2.3,0.6-4,2.5-4.4,4.7L14.8,50z M20.3,52.4L5,55.9c1.2,2.4,3.8,3.7,6.4,3.1
		c1.7-0.4,3.2-1.6,3.9-3.3l4,1.8c-0.6,1.4-1.5,2.6-2.7,3.6c-1.2,1-2.6,1.7-4.2,2.1c-2.6,0.6-5.3,0.2-7.6-1.3
		c-2.3-1.4-3.9-3.7-4.5-6.4C-0.3,53,0.1,50.3,1.5,48c1.4-2.3,3.7-3.9,6.3-4.6c2.6-0.6,5.3-0.2,7.6,1.3c1.7,1,2.9,2.5,3.8,4.2
		c0.3,0.7,0.6,1.4,0.8,2.1L20.3,52.4z"/>
</g>
<polygon class="st0" points="39.3,43.7 33.9,54.4 28.5,43.7 23.6,43.7 33.9,64.2 44.3,43.7 "/>
<g>
	<defs>
		<rect id="SVGID_5_" width="185.5" height="64.2"/>
	</defs>
	<clipPath id="SVGID_6_">
		<use xlink:href="#SVGID_5_"  style="overflow:visible;"/>
	</clipPath>
	<path class="st3" d="M57.8,47.6c-3.2,0-5.8,2.6-5.8,5.8c0,3.3,2.6,5.8,5.8,5.8c3.2,0,5.7-2.6,5.7-5.8
		C63.5,50.2,60.9,47.6,57.8,47.6 M57.8,63.6c-2.7,0-5.2-1-7.1-3c-1.9-1.9-3-4.5-3-7.2c0-2.7,1.1-5.3,3-7.2c1.9-1.9,4.4-3,7.1-3
		c2.7,0,5.2,1.1,7.1,3c1.9,1.9,2.9,4.5,2.9,7.2c0,2.7-1,5.3-2.9,7.2C63,62.6,60.5,63.6,57.8,63.6"/>
</g>
<rect x="73.6" y="34.9" class="st0" width="4.8" height="28.2"/>
<g>
	<defs>
		<rect id="SVGID_7_" width="185.5" height="64.2"/>
	</defs>
	<clipPath id="SVGID_8_">
		<use xlink:href="#SVGID_7_"  style="overflow:visible;"/>
	</clipPath>
	<path class="st4" d="M89.2,43.7v9.5c0,1.5-0.1,3.9,1,5.1c1,1.1,2.4,1.6,3.9,1.5c1.6-0.1,2.9-0.8,3.8-1.8c1.1-1.2,1-3.1,1-4.7v-3.5
		v-6.2h4.8v19.5h-4.8v-2.4c0,0.2-0.4,0.6-0.6,0.8c-0.6,0.6-1.2,1-1.8,1.3c-2.1,1.1-4.9,1.2-7.1,0.3c-2.3-0.9-3.7-3-4.3-5.2
		c-0.5-2-0.5-4.1-0.5-6v-8.1H89.2z"/>
</g>
<polygon class="st0" points="123.2,48.1 118.4,48.1 118.4,63.1 113.6,63.1 113.6,48.1 109.8,48.1 109.8,43.7 113.6,43.7 113.6,37 
	118.4,37 118.4,43.7 123.2,43.7 "/>
<path class="st0" d="M134.1,43.8h-4.8v19.3h4.8V43.8z M134.1,40h-4.8v-5.2h4.8V40z"/>
<g>
	<defs>
		<rect id="SVGID_9_" width="185.5" height="64.2"/>
	</defs>
	<clipPath id="SVGID_10_">
		<use xlink:href="#SVGID_9_"  style="overflow:visible;"/>
	</clipPath>
	<path class="st5" d="M150,47.6c-3.2,0-5.8,2.6-5.8,5.8c0,3.3,2.6,5.8,5.8,5.8c3.2,0,5.7-2.6,5.7-5.8
		C155.7,50.2,153.1,47.6,150,47.6 M150,63.6c-2.7,0-5.2-1-7.1-3c-1.9-1.9-3-4.5-3-7.2c0-2.7,1.1-5.3,3-7.2c1.9-1.9,4.4-3,7.1-3
		c2.7,0,5.2,1.1,7.1,3c1.9,1.9,2.9,4.5,2.9,7.2c0,2.7-1,5.3-2.9,7.2C155.2,62.6,152.7,63.6,150,63.6"/>
	<path class="st5" d="M180.6,63.1v-9c0-1.5,0.1-3.7-1-4.9c-1-1.1-2.4-1.6-3.9-1.5c-1.6,0-2.9,0.5-3.7,1.5c-1.1,1.2-1.1,3.1-1.1,4.7
		v3.5v5.7h-4.8V43.7h4.8v2.9c0-0.2,2.3-3.5,6.9-3.2c3.3,0.2,5.8,2.2,6.8,5.3c0.8,2.2,0.8,4.5,0.8,6.8v7.6H180.6z"/>
</g>
</svg>
